<svg width="224" height="130" viewBox="0 0 224 130" fill="none" xmlns="http://www.w3.org/2000/svg">
<rect x="0.5" y="0.5" width="223" height="129" fill="#F3F4F6" stroke="#D1D5DB"/>
<g clip-path="url(#clip0_3_2165)">
<path d="M156.347 65.3118C156.314 65.3386 156.185 65.4354 156.121 65.4837C155.803 65.7202 155.459 65.8921 155.077 66.048C154.366 66.3381 153.494 66.4832 152.466 66.4832C151.438 66.4832 150.583 66.3005 149.888 65.9405C149.194 65.5804 148.64 65.1183 148.242 64.5594C147.827 63.9898 147.526 63.3396 147.343 62.6303C147.154 61.8995 147.057 61.174 147.057 60.47C147.057 60.4539 147.057 60.4324 147.057 60.4109V60.3841C147.057 60.3841 147.057 60.3464 147.057 60.325C147.057 59.621 147.154 58.8955 147.343 58.1647C147.526 57.4554 147.827 56.8052 148.242 56.2356C148.645 55.6767 149.2 55.2145 149.888 54.8545C150.583 54.4945 151.449 54.3118 152.466 54.3118C153.484 54.3118 154.366 54.4569 155.077 54.747C155.459 54.9029 155.803 55.0748 156.121 55.3113C156.196 55.365 156.357 55.494 156.357 55.494L156.987 55.0103L161.4 51.0768C159.081 49.5829 156.094 48.8252 152.526 48.8252C150.502 48.8252 148.618 49.0993 146.923 49.642C145.211 50.1901 143.731 50.9693 142.526 51.9581C141.31 52.9522 140.352 54.1613 139.668 55.5423C138.985 56.9288 138.64 58.471 138.64 60.1261V60.6742C138.64 62.3293 138.985 63.8716 139.668 65.258C140.346 66.6391 141.31 67.8482 142.526 68.8423C143.731 69.8311 145.211 70.6102 146.923 71.1584C148.618 71.7011 150.507 71.9805 152.526 71.9805C155.878 71.9805 158.715 71.3142 160.97 69.9923L161.4 69.7128L156.352 65.3171L156.347 65.3118Z" fill="#005A97"/>
<path d="M131.751 50.6523C129.238 49.4002 126.439 48.7607 123.431 48.7607C120.6 48.8682 117.973 49.5184 115.622 50.7007C115.595 50.6845 115.562 50.6684 115.53 50.6523C113.017 49.4002 110.417 48.7607 107.409 48.7607C104.486 48.8682 101.785 49.5614 99.3734 50.8135C96.8331 52.1301 95.5522 54.7363 95.5522 58.557V71.5453H103.604V57.4447C103.604 56.3592 103.975 55.5961 104.739 55.1125C105.579 54.5859 106.747 54.3172 107.823 54.3172C108.899 54.3172 109.701 54.5859 110.573 55.1125C111.37 55.5961 111.752 56.3592 111.752 57.4393V68.2888C111.752 68.3856 111.752 68.4877 111.768 68.5898C111.784 70.218 113.119 71.5399 114.75 71.5399H119.62V57.4447C119.62 56.3592 119.992 55.5961 120.756 55.1125C121.59 54.5859 122.564 54.3172 123.646 54.3172C124.728 54.3172 125.723 54.5859 126.595 55.1125C127.392 55.5961 127.774 56.3592 127.774 57.4393V68.2888C127.774 69.2561 128.161 70.0568 128.92 70.6694C129.641 71.2498 130.578 71.5453 131.697 71.5453H135.723V58.5624C135.723 54.6342 134.383 51.9742 131.746 50.6577L131.751 50.6523Z" fill="#005A97"/>
<path d="M172.875 54.43C173.65 54.0539 174.64 53.8658 175.819 53.8658C176.997 53.8658 177.998 54.0539 178.795 54.43C179.586 54.8062 180.221 55.2952 180.684 55.8809C181.152 56.472 181.486 57.1652 181.679 57.9391C181.879 58.7344 181.981 59.5566 181.981 60.3734C181.981 61.1902 181.879 62.007 181.679 62.7862C181.486 63.5492 181.152 64.2424 180.684 64.8497C180.221 65.4515 179.586 65.9352 178.8 66.2952C178.009 66.6606 177.003 66.8433 175.819 66.8433C174.635 66.8433 173.644 66.6606 172.869 66.2952C172.094 65.9352 171.47 65.4461 171.007 64.8497C170.539 64.2424 170.205 63.5492 170.011 62.7862C169.812 62.007 169.71 61.1955 169.71 60.3734C169.71 59.5512 169.812 58.7344 170.011 57.9391C170.205 57.1652 170.539 56.472 171.007 55.8809C171.47 55.2898 172.1 54.8062 172.875 54.43V54.43ZM188.988 55.58C188.315 54.1452 187.347 52.9093 186.103 51.9044C184.871 50.9049 183.364 50.1149 181.626 49.5668C179.898 49.0187 177.944 48.7446 175.819 48.7446C173.693 48.7446 171.75 49.0241 170.033 49.5668C168.316 50.1149 166.815 50.8995 165.582 51.899C164.344 52.9039 163.37 54.1452 162.697 55.5746C162.025 57.004 161.686 58.6215 161.686 60.3734C161.686 62.1252 162.025 63.7373 162.697 65.1506C163.37 66.5693 164.339 67.7998 165.582 68.8047C166.815 69.8096 168.311 70.5834 170.033 71.1208C171.744 71.6528 173.687 71.9215 175.813 71.9215C177.939 71.9215 179.887 71.6528 181.62 71.1208C183.359 70.5888 184.866 69.8096 186.098 68.8047C187.336 67.7998 188.305 66.5693 188.983 65.1506C189.656 63.7319 189.995 62.1252 189.995 60.3734C189.995 58.6215 189.656 57.0094 188.983 55.5746L188.988 55.58Z" fill="#005A97"/>
<path d="M53.9391 54.5213C53.051 55.15 51.7002 55.467 49.9188 55.467H42.9438V47.9546H49.9188C51.7002 47.9546 53.051 48.2662 53.9391 48.8842C54.8217 49.4968 55.2684 50.362 55.2684 51.7215C55.2684 53.0811 54.8217 53.9033 53.9391 54.5266V54.5213ZM60.8549 56.7943C60.8925 56.7567 60.9302 56.7191 60.9733 56.6815C61.0002 56.6546 61.0271 56.6277 61.054 56.6009C61.1347 56.5149 61.2155 56.4289 61.2962 56.3429C61.3177 56.3214 61.3339 56.3 61.3554 56.2785C61.4307 56.1925 61.5061 56.1011 61.5814 56.0044C61.5976 55.9829 61.6191 55.9614 61.6352 55.9399C62.5771 54.7416 63.1637 53.2692 63.2175 51.6248C63.2391 51.3723 63.2175 51.1412 63.2175 50.8886C63.2175 49.7978 62.97 48.766 62.4856 47.8202C62.0012 46.8745 61.2908 46.0308 60.3759 45.3161C59.4609 44.6014 58.3469 44.0264 57.0606 43.618C55.7797 43.2042 54.3212 43 52.7227 43H35V71.5183H42.9438V60.4108H48.7186C50.6615 60.4108 52.0823 60.7548 52.938 61.4372C53.7884 62.1143 54.3535 63.2052 54.6172 64.6722C54.6387 64.7958 54.6602 64.9194 54.6818 65.043C54.7194 65.2902 54.741 65.532 54.741 65.7792V69.0034C54.741 70.3898 55.8658 71.5129 57.249 71.5129H62.717V68.4338C62.717 67.0796 62.7762 65.704 62.6793 64.3498C62.6686 64.1724 62.6524 63.9951 62.6363 63.8178C62.5932 63.404 62.491 62.9849 62.3833 62.5818C62.2003 61.8617 61.9043 61.1954 61.5007 60.5989C60.9894 59.8305 60.4351 59.0997 59.7085 58.5999C59.4663 58.4333 59.208 58.299 58.9281 58.1915C59.547 57.8476 60.1122 57.4499 60.6127 57.0039C60.6934 56.9394 60.7741 56.8642 60.8549 56.789V56.7943Z" fill="#005A97"/>
<path d="M55.4408 78.8321C55.2309 78.6763 54.978 78.5957 54.6873 78.5957H53.5571V84.7002H55.753V79.391C55.753 79.1707 55.6507 78.9826 55.4408 78.8268V78.8321Z" fill="#69BBE9"/>
<path d="M55.4408 76.8546C55.2309 76.6988 54.978 76.6182 54.6873 76.6182H53.5571V77.9132H55.753V77.4188C55.753 77.1985 55.6507 77.0104 55.4408 76.8546Z" fill="#69BBE9"/>
<path d="M87.3769 82.212C87.3231 82.5774 87.1939 82.873 86.984 83.0825C86.7795 83.2921 86.4943 83.3942 86.1068 83.3942C85.8592 83.3942 85.6493 83.3405 85.4825 83.2276C85.3102 83.1148 85.1757 82.9697 85.0734 82.7977C84.9712 82.615 84.8958 82.4108 84.8474 82.1905C84.799 81.9648 84.7774 81.7337 84.7774 81.5134C84.7774 81.2931 84.799 81.0513 84.8474 80.8202C84.8958 80.5945 84.9712 80.3849 85.0842 80.1969C85.1918 80.0142 85.3372 79.8637 85.5094 79.7455C85.6762 79.6326 85.8915 79.5735 86.1444 79.5735C86.828 79.5735 87.2101 79.8959 87.3177 80.5623L87.3339 80.6644H89.2714V80.5354C89.2391 80.1109 89.1314 79.7347 88.9538 79.423C88.7762 79.1114 88.5394 78.8481 88.2488 78.6385C87.9635 78.4289 87.6352 78.2731 87.2747 78.171C86.9194 78.0689 86.5373 78.0205 86.1552 78.0205C85.6224 78.0205 85.1488 78.1119 84.7344 78.2892C84.32 78.4665 83.9594 78.7191 83.6741 79.0361C83.3835 79.3532 83.1628 79.7347 83.0175 80.17C82.8722 80.5999 82.7969 81.0728 82.7969 81.5779C82.7969 82.083 82.8776 82.5183 83.0391 82.9267C83.2005 83.3351 83.4266 83.6952 83.7172 83.9907C84.0078 84.2863 84.3576 84.5227 84.7721 84.6839C85.1811 84.8505 85.6385 84.9311 86.1229 84.9311C86.9894 84.9311 87.716 84.7 88.2757 84.2379C88.8354 83.7811 89.1852 83.104 89.3036 82.2335L89.3252 82.0992H87.3984L87.3823 82.2013L87.3769 82.212Z" fill="#69BBE9"/>
<path d="M94.4974 82.212C94.4543 82.4377 94.3736 82.6419 94.2606 82.8246C94.1529 82.9966 94.0076 83.1417 93.8246 83.2438C93.6416 83.3459 93.4102 83.3996 93.1411 83.3996C92.872 83.3996 92.6406 83.3459 92.463 83.2438C92.2854 83.1417 92.1401 82.9966 92.0324 82.8246C91.9248 82.6473 91.8441 82.4377 91.7956 82.212C91.7472 81.9809 91.7257 81.7391 91.7257 81.4919C91.7257 81.2447 91.7472 81.0029 91.7956 80.7665C91.8387 80.5354 91.9194 80.3312 92.0324 80.1592C92.1401 79.9873 92.2854 79.8476 92.463 79.7401C92.6406 79.6326 92.8666 79.5789 93.1357 79.5789C93.4048 79.5789 93.6363 79.6326 93.8192 79.7401C94.0022 79.8476 94.1475 79.9873 94.2552 80.1592C94.3682 80.3366 94.4436 80.5408 94.492 80.7665C94.5404 81.0029 94.562 81.2447 94.562 81.4919C94.562 81.7391 94.5404 81.9756 94.492 82.212H94.4974ZM95.6222 78.9717C95.3262 78.6707 94.9602 78.4343 94.5404 78.2677C94.1206 78.1065 93.6524 78.0205 93.1411 78.0205C92.6298 78.0205 92.1562 78.1065 91.7472 78.2677C91.3328 78.4343 90.9722 78.6707 90.6762 78.9717C90.3802 79.2726 90.1488 79.6434 89.9873 80.0679C89.8258 80.4924 89.7451 80.9707 89.7451 81.4919C89.7451 82.0132 89.8258 82.4861 89.9873 82.9106C90.1488 83.3351 90.3802 83.7005 90.6762 84.0015C90.9722 84.3024 91.3382 84.5388 91.7526 84.7C92.167 84.8613 92.6352 84.9419 93.1465 84.9419C93.6578 84.9419 94.1314 84.8613 94.5458 84.7C94.9656 84.5388 95.3262 84.3024 95.6276 84.0015C95.9236 83.7005 96.155 83.3351 96.3165 82.9106C96.4779 82.4914 96.5587 82.0132 96.5587 81.4919C96.5587 80.9707 96.4779 80.4924 96.3165 80.0679C96.155 79.6434 95.9236 79.2726 95.6276 78.9717H95.6222Z" fill="#69BBE9"/>
<path d="M106.59 78.5686C106.375 78.3805 106.111 78.2355 105.805 78.1495C105.509 78.0635 105.18 78.0205 104.836 78.0205C104.373 78.0205 103.964 78.1334 103.62 78.3591C103.351 78.5364 103.119 78.7406 102.936 78.9663C102.759 78.6439 102.516 78.4074 102.21 78.2677C101.865 78.1065 101.478 78.0259 101.058 78.0259C100.638 78.0259 100.229 78.1226 99.8845 78.3107C99.6316 78.4504 99.4056 78.6331 99.2118 78.8588V78.1978H97.3281V84.7806H99.3141V80.9814C99.3141 80.6912 99.3571 80.4548 99.4379 80.2775C99.5186 80.1055 99.6155 79.9712 99.7285 79.8798C99.8415 79.7885 99.9599 79.724 100.078 79.6917C100.202 79.6595 100.299 79.6434 100.374 79.6434C100.627 79.6434 100.821 79.6864 100.939 79.767C101.063 79.8476 101.149 79.9497 101.198 80.084C101.252 80.2291 101.284 80.3849 101.295 80.5569C101.305 80.7396 101.305 80.9223 101.305 81.1104V84.786H103.291V81.1319C103.291 80.9438 103.307 80.7504 103.334 80.5677C103.361 80.3903 103.415 80.2345 103.49 80.0948C103.566 79.9604 103.673 79.8529 103.808 79.767C103.943 79.6864 104.12 79.6434 104.341 79.6434C104.561 79.6434 104.739 79.681 104.863 79.7508C104.987 79.8207 105.078 79.9121 105.143 80.0357C105.207 80.1592 105.25 80.3097 105.266 80.4817C105.283 80.6644 105.288 80.8632 105.288 81.0728V84.786H107.274V80.4226C107.274 79.998 107.215 79.6326 107.096 79.3263C106.973 79.02 106.8 78.7675 106.585 78.574L106.59 78.5686Z" fill="#69BBE9"/>
<path d="M112.974 82.2335C112.925 82.4646 112.85 82.6634 112.737 82.8354C112.629 83.0019 112.484 83.1417 112.306 83.2438C112.134 83.3459 111.913 83.3996 111.65 83.3996C111.386 83.3996 111.176 83.3459 110.999 83.2438C110.821 83.1417 110.676 83.0019 110.568 82.8354C110.455 82.6634 110.38 82.4592 110.326 82.2335C110.272 81.9971 110.25 81.7552 110.25 81.508C110.25 81.2609 110.277 81.0083 110.32 80.7718C110.363 80.5408 110.444 80.3366 110.557 80.1646C110.665 79.9927 110.81 79.8529 110.982 79.7401C111.155 79.6326 111.375 79.5789 111.639 79.5789C111.903 79.5789 112.107 79.6326 112.285 79.7401C112.462 79.8476 112.608 79.9927 112.721 80.17C112.834 80.3473 112.92 80.5569 112.968 80.788C113.022 81.0244 113.044 81.2662 113.044 81.508C113.044 81.7499 113.022 81.9971 112.974 82.2335V82.2335ZM114.303 79.106C114.055 78.7836 113.743 78.5203 113.367 78.3268C112.99 78.128 112.538 78.0312 112.021 78.0312C111.612 78.0312 111.23 78.1119 110.891 78.2731C110.638 78.3913 110.417 78.5686 110.229 78.7943V78.2032H108.329V87.0054H110.315V84.1949C110.503 84.4045 110.729 84.5711 110.982 84.6947C111.327 84.8612 111.714 84.9472 112.123 84.9472C112.608 84.9472 113.038 84.8505 113.399 84.6624C113.759 84.4743 114.066 84.2218 114.314 83.9047C114.556 83.593 114.739 83.2276 114.857 82.8246C114.976 82.4216 115.035 81.9971 115.035 81.5618C115.035 81.105 114.976 80.659 114.857 80.2345C114.739 79.8099 114.556 79.4284 114.308 79.106H114.303Z" fill="#69BBE9"/>
<path d="M119.674 82.2067C119.674 82.298 119.663 82.427 119.642 82.5828C119.626 82.7279 119.572 82.8784 119.491 83.0235C119.41 83.1632 119.287 83.2868 119.114 83.3889C118.947 83.491 118.7 83.5447 118.377 83.5447C118.248 83.5447 118.119 83.534 117.995 83.5125C117.876 83.491 117.774 83.4534 117.694 83.3996C117.613 83.3513 117.548 83.2814 117.505 83.1954C117.457 83.1094 117.435 82.9966 117.435 82.8623C117.435 82.7172 117.457 82.6043 117.505 82.513C117.554 82.4216 117.618 82.3464 117.699 82.2873C117.78 82.2282 117.882 82.1744 117.995 82.1368C118.119 82.0992 118.242 82.0669 118.366 82.0401C118.501 82.0186 118.641 81.9971 118.775 81.981C118.915 81.9648 119.055 81.9433 119.184 81.9165C119.319 81.8896 119.443 81.8574 119.556 81.8198C119.599 81.809 119.636 81.7929 119.674 81.7714V82.2013V82.2067ZM121.708 84.0552C121.676 83.8027 121.66 83.5286 121.66 83.2492V79.9497C121.66 79.5413 121.563 79.2028 121.38 78.9502C121.197 78.703 120.96 78.5042 120.67 78.3698C120.39 78.2355 120.078 78.1441 119.739 78.0958C119.039 77.999 118.35 77.999 117.677 78.1334C117.317 78.2032 116.988 78.3268 116.698 78.4988C116.407 78.6708 116.16 78.9018 115.971 79.1866C115.778 79.4714 115.67 79.8368 115.643 80.2667L115.632 80.3957H117.613L117.624 80.2882C117.65 79.9819 117.753 79.7616 117.92 79.638C118.092 79.5091 118.345 79.4392 118.657 79.4392C118.802 79.4392 118.942 79.4499 119.077 79.4661C119.195 79.4822 119.303 79.5198 119.389 79.5735C119.475 79.6219 119.54 79.6918 119.588 79.7885C119.642 79.8798 119.663 80.0088 119.663 80.1861C119.669 80.3259 119.631 80.428 119.545 80.4978C119.443 80.5784 119.303 80.6429 119.125 80.6913C118.937 80.7396 118.711 80.7772 118.469 80.7987C118.21 80.8256 117.952 80.8579 117.688 80.8955C117.424 80.9385 117.155 80.9922 116.897 81.0621C116.628 81.1319 116.38 81.2448 116.17 81.3899C115.955 81.5403 115.778 81.7391 115.643 81.9917C115.508 82.2389 115.438 82.5613 115.438 82.9375C115.438 83.2814 115.498 83.5823 115.616 83.8349C115.734 84.0875 115.901 84.3024 116.111 84.469C116.321 84.6356 116.563 84.7538 116.843 84.8344C117.118 84.9096 117.408 84.9473 117.726 84.9473C118.129 84.9473 118.528 84.8881 118.915 84.7699C119.233 84.6732 119.518 84.5174 119.771 84.3024C119.771 84.3293 119.782 84.3615 119.787 84.3884C119.809 84.4959 119.836 84.598 119.873 84.7054L119.9 84.786H121.972L121.859 84.6033C121.784 84.4905 121.735 84.3078 121.703 84.066L121.708 84.0552Z" fill="#69BBE9"/>
<path d="M128.409 78.7889C128.226 78.5471 127.973 78.3591 127.656 78.2247C127.343 78.0904 126.94 78.0259 126.461 78.0259C126.079 78.0259 125.696 78.1119 125.325 78.2892C125.045 78.4235 124.803 78.617 124.599 78.8696V78.1978H122.699V84.7806H124.685V81.3361C124.685 80.7181 124.782 80.2721 124.981 80.0142C125.174 79.7616 125.476 79.638 125.917 79.638C126.294 79.638 126.547 79.7455 126.687 79.9712C126.837 80.2076 126.913 80.5784 126.913 81.0782V84.7806H128.899V80.7611C128.899 80.3634 128.861 79.9927 128.791 79.6649C128.721 79.3263 128.592 79.0361 128.409 78.7943V78.7889Z" fill="#69BBE9"/>
<path d="M133.737 78.1978L132.424 82.3086L131.062 78.1978H128.947L131.235 84.313C131.278 84.4205 131.299 84.5387 131.299 84.6623C131.299 84.8289 131.251 84.974 131.154 85.1084C131.062 85.2373 130.922 85.3072 130.734 85.3287C130.567 85.334 130.4 85.3287 130.234 85.3179C130.061 85.3018 129.894 85.2857 129.728 85.2696L129.598 85.2588V86.9354L129.706 86.9462C129.889 86.9623 130.067 86.9784 130.244 86.9892C130.422 86.9999 130.605 87.0053 130.788 87.0053C131.407 87.0053 131.902 86.8871 132.257 86.656C132.612 86.4195 132.892 86.0326 133.091 85.4953L135.804 78.2085H133.737V78.1978Z" fill="#69BBE9"/>
<path d="M38.9503 82.3895C38.9503 82.4755 38.9396 82.5937 38.9234 82.7442C38.9073 82.8785 38.8589 83.0183 38.7835 83.1526C38.7082 83.2816 38.5898 83.3998 38.4337 83.4912C38.2776 83.5879 38.0462 83.6362 37.7502 83.6362C37.6264 83.6362 37.508 83.6255 37.395 83.604C37.2873 83.5825 37.1958 83.5503 37.1151 83.5019C37.0398 83.4535 36.9806 83.3944 36.9375 83.3138C36.8944 83.2332 36.8729 83.1257 36.8729 83.0021C36.8729 82.8678 36.8944 82.7603 36.9375 82.6797C36.9806 82.5937 37.0451 82.5239 37.1151 82.4755C37.1905 82.4164 37.2873 82.3734 37.3896 82.3412C37.5026 82.3036 37.621 82.2767 37.734 82.2552C37.8632 82.2337 37.9924 82.2122 38.1161 82.2015C38.2453 82.1853 38.3745 82.1638 38.4983 82.1423C38.622 82.1209 38.7405 82.0886 38.8481 82.051C38.8858 82.0402 38.9181 82.0241 38.9503 82.0134V82.4057V82.3895ZM40.8663 84.1199C40.834 83.8834 40.8233 83.6309 40.8233 83.3676V80.283C40.8233 79.9015 40.7318 79.5845 40.5595 79.348C40.3873 79.1169 40.1667 78.9289 39.8976 78.7999C39.6339 78.6709 39.3378 78.5849 39.0257 78.542C38.3691 78.4506 37.7286 78.4506 37.099 78.5796C36.7599 78.6441 36.4531 78.7623 36.184 78.9181C35.9095 79.0793 35.6781 79.2997 35.5005 79.563C35.3229 79.8317 35.2153 80.1702 35.1937 80.5732V80.7022H37.0451L37.0559 80.5947C37.0828 80.3099 37.1743 80.1057 37.3304 79.9929C37.4918 79.8746 37.7233 79.8102 38.0139 79.8102C38.1538 79.8102 38.283 79.8209 38.4014 79.837C38.5144 79.8531 38.6113 79.8854 38.692 79.9391C38.7674 79.9875 38.8319 80.052 38.8804 80.138C38.9288 80.2239 38.9503 80.3422 38.9503 80.5034C38.9557 80.6323 38.9234 80.7291 38.8427 80.7882C38.7512 80.8634 38.6167 80.9225 38.4552 80.9655C38.2776 81.0085 38.0731 81.0461 37.8417 81.0676C37.6049 81.0891 37.3573 81.1213 37.1097 81.159C36.8622 81.1966 36.6092 81.2503 36.367 81.3148C36.1141 81.3847 35.8826 81.4868 35.6889 81.6265C35.4844 81.7662 35.3175 81.9543 35.1937 82.1907C35.0646 82.4272 35 82.7227 35 83.0774C35 83.3998 35.0538 83.6846 35.1668 83.9211C35.2799 84.1575 35.4359 84.3563 35.6297 84.5175C35.8234 84.6734 36.0549 84.7862 36.3132 84.8615C36.5661 84.9313 36.846 84.9689 37.1366 84.9689C37.5134 84.9689 37.8901 84.9152 38.2507 84.8023C38.5467 84.7164 38.8104 84.5713 39.0418 84.3724C39.0418 84.3939 39.0472 84.4208 39.0526 84.4423C39.0741 84.5444 39.101 84.6411 39.1333 84.7379L39.1602 84.8185H41.1193L41.0062 84.6358C40.9417 84.5283 40.8932 84.3617 40.8609 84.136L40.8663 84.1199Z" fill="#69BBE9"/>
<path d="M64.1484 78.4506H61.5113L58.8418 80.7559V77.392C58.8418 77.1878 58.7396 77.0104 58.5297 76.8492C58.3198 76.6934 58.0668 76.6128 57.7762 76.6128H56.646V84.7002H58.8418V82.3251C58.8418 82.2015 58.9548 82.1047 59.1863 82.0456C59.4177 81.9811 59.6868 82.1638 60.0043 82.5884L61.5436 84.7056H64.1807L61.1668 80.8527L64.1484 78.456V78.4506Z" fill="#69BBE9"/>
<path d="M69.2777 82.142C69.2777 82.5827 69.1109 82.9266 68.7772 83.1738C68.4435 83.4263 67.9807 83.5499 67.394 83.5499C67.0388 83.5499 66.7643 83.4854 66.576 83.3618C66.3876 83.2221 66.2961 83.034 66.2961 82.7976C66.2961 82.6256 66.3715 82.4537 66.5168 82.2817C66.6836 82.1581 66.9581 82.056 67.3348 81.9754L68.056 81.8572C68.578 81.7658 68.9871 81.6637 69.2777 81.5509V82.1366V82.142ZM70.4079 78.7566C69.8213 78.461 68.944 78.3105 67.7708 78.3105C66.7267 78.3105 65.9194 78.4879 65.3543 78.8533C64.8537 79.165 64.5577 79.568 64.477 80.0516H66.5813C66.6836 79.8797 66.8504 79.7615 67.0819 79.697C67.3133 79.6325 67.5716 79.6002 67.8676 79.6002C68.1367 79.6002 68.4381 79.6379 68.761 79.7077C69.084 79.7776 69.2454 79.9334 69.2454 80.1645C69.2454 80.4762 68.7826 80.6804 67.8623 80.7771C67.6739 80.7932 67.507 80.8147 67.3617 80.8362C67.2164 80.8577 67.0873 80.8738 66.985 80.8738C66.1885 80.9652 65.5373 81.1532 65.026 81.4381C64.5147 81.7175 64.2563 82.1904 64.2563 82.846C64.2563 83.5499 64.5362 84.0551 65.1013 84.3614C65.6664 84.6677 66.3284 84.8181 67.0765 84.8181C67.4532 84.8181 67.8892 84.7966 68.3789 84.759C68.8687 84.7214 69.3369 84.6139 69.7782 84.442C70.198 84.2861 70.5586 84.0282 70.86 83.6789C71.1614 83.3242 71.3175 82.8352 71.3175 82.2119V80.0731C71.3175 79.5089 71.0161 79.0682 70.4079 78.7566V78.7566Z" fill="#69BBE9"/>
<path d="M78.2921 78.8533C77.5171 78.4933 76.6722 78.3105 75.7518 78.3105C74.8531 78.3428 74.0296 78.5362 73.2869 78.8963C72.5442 79.2563 72.1729 79.971 72.1729 81.035V84.6999H74.3687V80.7019C74.3687 80.3257 74.514 80.0516 74.81 79.8797C75.1006 79.7077 75.4397 79.6217 75.811 79.6217C76.1824 79.6217 76.5268 79.7077 76.8336 79.8797C77.135 80.0516 77.2911 80.3257 77.2911 80.7019V83.8992C77.2911 84.1357 77.388 84.3237 77.5871 84.4742C77.7862 84.6247 78.0446 84.6945 78.3567 84.6945H79.4546V81.0296C79.4546 79.9334 79.0671 79.2026 78.2921 78.8425V78.8533Z" fill="#69BBE9"/>
<path d="M50.4787 77.22L48.3744 82.6475L46.0817 76.6074H43.6006L44.2572 78.0261C44.2572 78.0261 44.6608 78.9289 44.9945 79.6221L47.3357 84.6949H49.4723L53.1428 76.6074H51.5443C50.9577 76.6074 50.6025 76.8116 50.4787 77.22V77.22Z" fill="#69BBE9"/>
<path d="M84.5945 58.8418H73.1471C73.1471 58.7935 73.1471 58.7505 73.1471 58.7021C73.1471 55.2952 75.8596 53.9034 78.9704 53.9034C82.0811 53.9034 84.5999 55.2952 84.5999 58.7021C84.5999 58.7505 84.5999 58.7935 84.5999 58.8418H84.5945ZM92.1723 62.8829C92.1723 62.8829 92.3876 60.6689 92.1454 58.5087C92.0808 57.9659 91.9947 57.4232 91.8601 56.9234C91.4457 55.3436 90.5577 53.9571 89.4544 52.7427C88.3457 51.5282 86.9195 50.5448 85.208 49.8247C83.502 49.11 81.4784 48.7446 79.191 48.7446C77.1513 48.7446 75.2622 49.0402 73.583 49.6313C73.3893 49.7012 73.1955 49.771 73.0018 49.8462C71.554 50.4159 70.2785 51.1574 69.1968 52.0656C67.9697 53.1027 67.0063 54.344 66.3389 55.7627C65.6716 57.1814 65.3325 58.7344 65.3325 60.3787C65.3325 62.0231 65.6608 63.6567 66.312 65.0754C66.9632 66.494 67.8997 67.73 69.0945 68.751C70.2839 69.7666 71.7532 70.5619 73.4646 71.11C75.1599 71.6528 77.0867 71.9322 79.191 71.9322C79.4601 71.9322 79.7292 71.9269 79.9983 71.9161C83.6742 71.8731 86.5212 71.2175 88.5341 69.9332C90.3801 68.7779 91.4619 67.3055 91.7686 65.516H84.024C83.6365 66.1501 83.023 66.5854 82.1726 66.8164C80.8702 67.1711 79.3794 67.2356 78.0393 67.0636C77.0813 66.9454 76.1287 66.6552 75.3268 66.1071C74.4119 65.4838 73.7176 64.6616 73.4323 63.6083C73.3947 63.474 73.3624 63.3396 73.3301 63.2053C73.3032 63.0978 73.2924 62.9904 73.2763 62.8883H92.1723V62.8829Z" fill="#005A97"/>
</g>
<defs>
<clipPath id="clip0_3_2165">
<rect width="155" height="44" fill="white" transform="translate(35 43)"/>
</clipPath>
</defs>
</svg>
