<svg width="14" height="26" viewBox="0 0 14 26" fill="none" xmlns="http://www.w3.org/2000/svg">
<path d="M11.4386 24.8541L0.535071 13.9506C0.342218 13.7577 0.204836 13.5546 0.122925 13.3413C0.0409748 13.128 0 12.9039 0 12.6691C0 12.4193 0.0409748 12.1915 0.122925 11.9857C0.204836 11.7799 0.342218 11.5805 0.535071 11.3877L11.4626 0.445115C11.7594 0.148372 12.1106 0 12.5163 0C12.9219 0 13.2731 0.148372 13.5698 0.445115C13.8566 0.741857 13.996 1.09705 13.988 1.5107C13.98 1.92434 13.8276 2.27956 13.5309 2.57634L3.4381 12.6691L13.5698 22.7858C13.8566 23.0826 14 23.4273 14 23.82C14 24.2127 13.8566 24.5574 13.5698 24.8541C13.2731 25.1509 12.9179 25.2992 12.5042 25.2992C12.0906 25.2992 11.7354 25.1509 11.4386 24.8541Z" fill="#D1D5DB"/>
</svg>
