<svg width="24" height="24" viewBox="0 0 24 24" fill="none" xmlns="http://www.w3.org/2000/svg">
<circle opacity="0.5" cx="12" cy="12" r="12" fill="white"/>
<g clip-path="url(#clip0_3_2513)">
<path d="M9.55652 15.9378H7.65176V9.8039H9.55652V15.9378ZM8.60312 8.96718C7.99403 8.96718 7.5 8.46269 7.5 7.8536C7.5 7.56104 7.61622 7.28046 7.82309 7.07358C8.02997 6.86671 8.31055 6.75049 8.60312 6.75049C8.89568 6.75049 9.17626 6.86671 9.38314 7.07358C9.59001 7.28046 9.70623 7.56104 9.70623 7.8536C9.70623 8.46269 9.21199 8.96718 8.60312 8.96718ZM16.6854 15.9378H14.7848V12.9518C14.7848 12.2402 14.7704 11.3276 13.7945 11.3276C12.8041 11.3276 12.6524 12.1008 12.6524 12.9006V15.9378H10.7497V9.8039H12.5765V10.6406H12.6032C12.8575 10.1587 13.4786 9.65009 14.4054 9.65009C16.3331 9.65009 16.6875 10.9195 16.6875 12.5683V15.9378H16.6854Z" fill="#192D69"/>
</g>
<defs>
<clipPath id="clip0_3_2513">
<rect width="9.1875" height="10.5" fill="white" transform="translate(7.5 6.75)"/>
</clipPath>
</defs>
</svg>
