<svg width="38" height="24" viewBox="0 0 38 24" fill="none" xmlns="http://www.w3.org/2000/svg">
<g clip-path="url(#clip0_3_2498)">
<path opacity="0.07" d="M35 0H3C1.3 0 0 1.3 0 3V21C0 22.7 1.4 24 3 24H35C36.7 24 38 22.7 38 21V3C38 1.3 36.6 0 35 0Z" fill="black"/>
<path d="M35 1C36.1 1 37 1.9 37 3V21C37 22.1 36.1 23 35 23H3C1.9 23 1 22.1 1 21V3C1 1.9 1.9 1 3 1H35Z" fill="white"/>
<path d="M23.9 8.3C24.1 7.3 23.9 6.6 23.3 6C22.7 5.3 21.6 5 20.2 5H16.1C15.8 5 15.6 5.2 15.5 5.5L14 15.6C14 15.8 14.1 16 14.3 16H17L17.4 12.6L19.2 10.4L23.9 8.3V8.3Z" fill="#003087"/>
<path d="M23.9016 8.2998L23.7016 8.4998C23.2016 11.2998 21.5016 12.2998 19.1016 12.2998H18.0016C17.7016 12.2998 17.5016 12.4998 17.4016 12.7998L16.8016 16.6998L16.6016 17.6998C16.6016 17.8998 16.7016 18.0998 16.9016 18.0998H19.0016C19.3016 18.0998 19.5016 17.8998 19.5016 17.6998V17.5998L19.9016 15.1998V15.0998C19.9016 14.8998 20.2016 14.6998 20.4016 14.6998H20.7016C22.8016 14.6998 24.4016 13.8998 24.8016 11.4998C25.0016 10.4998 24.9016 9.6998 24.4016 9.0998C24.3016 8.5998 24.1016 8.3998 23.9016 8.2998V8.2998Z" fill="#3086C8"/>
<path d="M23.2984 8.0998C23.1984 7.9998 23.0984 7.9998 22.9984 7.9998C22.8984 7.9998 22.7984 7.9998 22.6984 7.8998C22.3984 7.7998 21.9984 7.7998 21.5984 7.7998H18.5984C18.4984 7.7998 18.3984 7.7998 18.3984 7.8998C18.1984 7.9998 18.0984 8.0998 18.0984 8.2998L17.3984 12.6998V12.7998C17.3984 12.4998 17.6984 12.2998 17.9984 12.2998H19.2984C21.7984 12.2998 23.3984 11.2998 23.8984 8.4998V8.2998C23.7984 8.1998 23.5984 8.0998 23.3984 8.0998H23.2984V8.0998Z" fill="#012169"/>
</g>
<defs>
<clipPath id="clip0_3_2498">
<rect width="38" height="24" fill="white"/>
</clipPath>
</defs>
</svg>
