<svg width="30" height="30" viewBox="0 0 30 30" fill="none" xmlns="http://www.w3.org/2000/svg">
<mask id="mask0_3_2204" style="mask-type:alpha" maskUnits="userSpaceOnUse" x="0" y="0" width="30" height="30">
<rect width="30" height="30" fill="#D9D9D9"/>
</mask>
<g mask="url(#mask0_3_2204)">
<path d="M24.0513 15.7979H4.84772C4.62124 15.7979 4.43375 15.7237 4.28525 15.5752C4.13675 15.4267 4.0625 15.2392 4.0625 15.0127C4.0625 14.7862 4.13675 14.5987 4.28525 14.4502C4.43375 14.3017 4.62124 14.2274 4.84772 14.2274H24.0722L21.3245 11.4798C21.1824 11.3377 21.1124 11.1628 21.1146 10.955C21.1167 10.7472 21.1966 10.5645 21.3542 10.4069C21.5128 10.2483 21.6971 10.1689 21.907 10.1689C22.1169 10.1689 22.3012 10.2483 22.4599 10.4069L26.3822 14.3276C26.4853 14.4307 26.5598 14.5386 26.6057 14.6513C26.6517 14.764 26.6752 14.8845 26.6762 15.0127C26.6762 15.1462 26.653 15.268 26.6065 15.378C26.56 15.4881 26.4853 15.5947 26.3822 15.6978L22.4495 19.6384C22.2807 19.8019 22.0959 19.8804 21.895 19.874C21.6941 19.8676 21.5144 19.7851 21.3558 19.6264C21.1928 19.4635 21.1114 19.276 21.1114 19.0639C21.1114 18.8519 21.1864 18.6708 21.3365 18.5207L24.0513 15.7979Z" fill="#9CA3AF"/>
</g>
</svg>
